name Walk3.mot
datacolumns 19
datarows 27
range 1.17000000 1.19600000
endheader

                time	   L_ground_force_vx	   L_ground_force_vy	   L_ground_force_vz	   L_ground_force_px	   L_ground_force_py	   L_ground_force_pz	   R_ground_force_vx	   R_ground_force_vy	   R_ground_force_vz	   R_ground_force_px	   R_ground_force_py	   R_ground_force_pz	   L_ground_torque_x	   L_ground_torque_y	   L_ground_torque_z	   R_ground_torque_x	   R_ground_torque_y	   R_ground_torque_z	
          1.17000000	         -1.36194257	         55.76884528	         -3.80487335	          0.00140357	          0.00000000	         -0.00032275	         -0.00000000	          0.00000000	          0.00000000	          0.00000000	          0.00000000	          0.00000000	          0.00000000	          0.05560592	          0.00000000	          0.00000000	         -0.00000000	          0.00000000	
          1.17100000	         -1.79891912	         60.73608554	         -4.15999530	         -0.01849163	          0.00000000	         -0.00181143	         -0.00000000	          0.00000000	          0.00000000	          0.00000000	          0.00000000	          0.00000000	          0.00000000	          0.06388835	          0.00000000	          0.00000000	         -0.00000000	          0.00000000	
          1.17200000	         -2.26386969	         65.85411070	         -4.52581322	         -0.03833165	          0.00000000	         -0.00329773	         -0.00000000	          0.00000000	          0.00000000	          0.00000000	          0.00000000	          0.00000000	          0.00000000	          0.07275373	          0.00000000	          0.00000000	         -0.00000000	          0.00000000	
          1.17300000	         -2.75758435	         71.11707220	         -4.90191934	         -0.05806834	          0.00000000	         -0.00477812	         -0.00000000	          0.00000000	          0.00000000	          0.00000000	          0.00000000	          0.00000000	          0.00000000	          0.08221796	          0.00000000	          0.00000000	         -0.00000000	          0.00000000	
          1.17400000	         -3.28081758	         76.51809266	         -5.28783516	         -0.07765294	          0.00000000	         -0.00624903	         -0.00000000	          0.00000000	         -0.00000000	          0.00000000	          0.00000000	          0.00000000	          0.00000000	          0.09229581	          0.00000000	          0.00000000	         -0.00000000	          0.00000000	
          1.17500000	         -3.83428065	         82.04918376	         -5.68300561	         -0.09703581	          0.00000000	         -0.00770682	         -0.00000000	          0.00000000	         -0.00000000	          0.00000000	          0.00000000	         -0.00000000	          0.00000000	          0.10300077	          0.00000000	          0.00000000	         -0.00000000	          0.00000000	
          1.17600000	         -4.41863466	         87.70117722	         -6.08679434	         -0.11616654	          0.00000000	         -0.00914776	         -0.00000000	          0.00000000	         -0.00000000	         -0.00000000	          0.00000000	         -0.00000000	          0.00000000	          0.11434487	          0.00000000	          0.00000000	         -0.00000000	          0.00000000	
          1.17700000	         -5.03448789	         93.46371023	         -6.49848331	         -0.13499554	          0.00000000	         -0.01056821	         -0.00000000	          0.00000000	         -0.00000000	         -0.00000000	          0.00000000	         -0.00000000	          0.00000000	          0.12633841	          0.00000000	          0.00000000	         -0.00000000	          0.00000000	
          1.17800000	         -5.68239749	         99.32528539	         -6.91727720	         -0.15347650	          0.00000000	         -0.01196472	         -0.00000000	          0.00000000	         -0.00000000	         -0.00000000	          0.00000000	         -0.00000000	          0.00000000	          0.13898973	          0.00000000	          0.00000000	         -0.00000000	          0.00000000	
          1.17900000	         -6.36287141	        105.27337870	         -7.34230859	         -0.17156793	          0.00000000	         -0.01333423	         -0.00000000	          0.00000000	         -0.00000000	         -0.00000000	          0.00000000	         -0.00000000	          0.00000000	          0.15230493	          0.00000000	          0.00000000	         -0.00000000	          0.00000000	
          1.18000000	         -7.07636708	        111.29457864	         -7.77264131	         -0.18923337	          0.00000000	         -0.01467404	         -0.00000000	          0.00000000	         -0.00000000	         -0.00000000	          0.00000000	         -0.00000000	          0.00000000	          0.16628770	          0.00000000	          0.00000000	         -0.00000000	          0.00000000	
          1.18100000	         -7.82328654	        117.37476902	         -8.20727304	         -0.20644102	          0.00000000	         -0.01598180	         -0.00000000	          0.00000000	         -0.00000000	         -0.00000000	          0.00000000	         -0.00000000	          0.00000000	          0.18093906	          0.00000000	          0.00000000	         -0.00000000	          0.00000000	
          1.18200000	         -8.60396769	        123.49936198	         -8.64513816	         -0.22316354	          0.00000000	         -0.01725552	         -0.00000000	          0.00000000	         -0.00000000	         -0.00000000	          0.00000000	         -0.00000000	          0.00000000	          0.19625713	          0.00000000	          0.00000000	         -0.00000000	          0.00000000	
          1.18300000	         -9.41867115	        129.65357161	         -9.08511147	         -0.23937768	          0.00000000	         -0.01849352	         -0.00000000	          0.00000000	         -0.00000000	         -0.00000000	          0.00000000	         -0.00000000	          0.00000000	          0.21223692	          0.00000000	          0.00000000	         -0.00000000	          0.00000000	
          1.18400000	        -10.26756237	        135.82270880	         -9.52601331	         -0.25506411	          0.00000000	         -0.01969438	         -0.00000000	          0.00000000	         -0.00000000	         -0.00000000	          0.00000000	         -0.00000000	          0.00000000	          0.22887012	          0.00000000	          0.00000000	         -0.00000000	          0.00000000	
          1.18500000	        -11.15069036	        141.99247031	         -9.96661657	         -0.27020707	          0.00000000	         -0.02085700	         -0.00000000	          0.00000000	         -0.00000000	         -0.00000000	          0.00000000	         -0.00000000	          0.00000000	          0.24614508	          0.00000000	          0.00000000	          0.00000000	          0.00000000	
          1.18600000	        -12.06796473	        148.14919414	        -10.40565571	         -0.28479419	          0.00000000	         -0.02198050	         -0.00000000	         -0.00000000	         -0.00000000	         -0.00000000	          0.00000000	         -0.00000000	          0.00000000	          0.26404681	          0.00000000	          0.00000000	          0.00000000	          0.00000000	
          1.18700000	        -13.01913416	        154.28005847	        -10.84183776	         -0.29881623	          0.00000000	         -0.02306421	         -0.00000000	         -0.00000000	         -0.00000000	         -0.00000000	          0.00000000	         -0.00000000	          0.00000000	          0.28255716	          0.00000000	          0.00000000	          0.00000000	          0.00000000	
          1.18800000	        -14.00376886	        160.37321241	        -11.27385523	         -0.31226685	          0.00000000	         -0.02410771	          0.00000000	         -0.00000000	         -0.00000000	         -0.00000000	          0.00000000	         -0.00000000	          0.00000000	          0.30165505	          0.00000000	          0.00000000	          0.00000000	          0.00000000	
          1.18900000	        -15.02124915	        166.41783847	        -11.70040024	         -0.32514237	          0.00000000	         -0.02511073	          0.00000000	         -0.00000000	         -0.00000000	         -0.00000000	          0.00000000	         -0.00000000	          0.00000000	          0.32131676	          0.00000000	          0.00000000	          0.00000000	          0.00000000	
          1.19000000	        -16.07076100	        172.40415680	        -12.12017936	         -0.33744162	          0.00000000	         -0.02607322	          0.00000000	         -0.00000000	         -0.00000000	         -0.00000000	          0.00000000	         -0.00000000	          0.00000000	          0.34151619	          0.00000000	          0.00000000	          0.00000000	          0.00000000	
          1.19100000	        -17.15129791	        178.32338698	        -12.53192771	         -0.34916567	          0.00000000	         -0.02699526	          0.00000000	         -0.00000000	         -0.00000000	         -0.00000000	          0.00000000	         -0.00000000	          0.00000000	          0.36222498	          0.00000000	          0.00000000	          0.00000000	          0.00000000	
          1.19200000	        -18.26166797	        184.16768492	        -12.93442177	         -0.36031768	          0.00000000	         -0.02787709	          0.00000000	         -0.00000000	         -0.00000000	         -0.00000000	          0.00000000	         -0.00000000	          0.00000000	          0.38341254	          0.00000000	          0.00000000	          0.00000000	          0.00000000	
          1.19300000	        -19.40050433	        189.93007077	        -13.32648973	         -0.37090268	          0.00000000	         -0.02871906	          0.00000000	         -0.00000001	         -0.00000000	         -0.00000000	          0.00000000	         -0.00000000	          0.00000000	          0.40504589	          0.00000000	          0.00000000	          0.00000000	          0.00000000	
          1.19400000	        -20.56627784	        195.60436010	        -13.70701954	         -0.38092741	          0.00000000	         -0.02952167	          0.00000000	         -0.00000001	         -0.00000000	         -0.00000000	          0.00000000	         -0.00000000	          0.00000000	          0.42708955	          0.00000000	          0.00000000	          0.00000000	          0.00000000	
          1.19500000	        -21.75731062	        201.18510672	        -14.07496463	         -0.39040014	          0.00000000	         -0.03028550	          0.00000000	         -0.00000001	         -0.00000000	         -0.00000000	          0.00000000	         -0.00000000	          0.00000000	          0.44950545	          0.00000000	          0.00000000	          0.00000000	          0.00000000	
          1.19600000	        -22.97179000	        206.66756083	        -14.42934775	         -0.39933051	          0.00000000	         -0.03101122	          0.00000000	         -0.00000001	         -0.00000000	         -0.00000000	          0.00000000	         -0.00000000	          0.00000000	          0.47225284	          0.00000000	          0.00000000	          0.00000000	          0.00000000	
